HIERARCHY
ROOT Hips
{
	OFFSET 0.00000 0.00000 0.00000
	CHANNELS 6 Xposition Yposition Zposition Zrotation Yrotation Xrotation 
	JOINT LHipJoint
	{
		OFFSET 0 0 0
		CHANNELS 3 Zrotation Yrotation Xrotation
		JOINT LeftUpLeg
		{
			OFFSET 1.57338 -1.94743 0.52196
			CHANNELS 3 Zrotation Yrotation Xrotation
			JOINT LeftLeg
			{
				OFFSET 2.60333 -7.15259 0.00000
				CHANNELS 3 Zrotation Yrotation Xrotation
				JOINT LeftFoot
				{
					OFFSET 2.77855 -7.63400 0.00000
					CHANNELS 3 Zrotation Yrotation Xrotation
					JOINT LeftToeBase
					{
						OFFSET 0.19847 -0.54529 2.28466
						CHANNELS 3 Zrotation Yrotation Xrotation
						End Site
						{
							OFFSET 0.00000 -0.00000 1.17993
						}
					}
				}
			}
		}
	}
	JOINT RHipJoint
	{
		OFFSET 0 0 0
		CHANNELS 3 Zrotation Yrotation Xrotation
		JOINT RightUpLeg
		{
			OFFSET -1.61527 -1.94743 0.52196
			CHANNELS 3 Zrotation Yrotation Xrotation
			JOINT RightLeg
			{
				OFFSET -2.53829 -6.97390 0.00000
				CHANNELS 3 Zrotation Yrotation Xrotation
				JOINT RightFoot
				{
					OFFSET -2.80762 -7.71387 0.00000
					CHANNELS 3 Zrotation Yrotation Xrotation
					JOINT RightToeBase
					{
						OFFSET -0.30536 -0.83898 2.28801
						CHANNELS 3 Zrotation Yrotation Xrotation
						End Site
						{
							OFFSET -0.00000 -0.00000 1.21323
						}
					}
				}
			}
		}
	}
	JOINT LowerBack
	{
		OFFSET 0 0 0
		CHANNELS 3 Zrotation Yrotation Xrotation
		JOINT Spine
		{
			OFFSET -0.04381 1.99497 -0.19778
			CHANNELS 3 Zrotation Yrotation Xrotation
			JOINT Spine1
			{
				OFFSET -0.01959 2.01295 -0.04372
				CHANNELS 3 Zrotation Yrotation Xrotation
				JOINT Neck
				{
					OFFSET 0 0 0
					CHANNELS 3 Zrotation Yrotation Xrotation
					JOINT Neck1
					{
						OFFSET -0.05459 1.76913 0.09708
						CHANNELS 3 Zrotation Yrotation Xrotation
						JOINT Head
						{
							OFFSET 0.09461 1.77368 -0.11172
							CHANNELS 3 Zrotation Yrotation Xrotation
							End Site
							{
								OFFSET 0.03812 1.78157 -0.04834
							}
						}
					}
				}
				JOINT LeftShoulder
				{
					OFFSET 0 0 0
					CHANNELS 3 Zrotation Yrotation Xrotation
					JOINT LeftArm
					{
						OFFSET 3.50922 1.24034 -0.28866
						CHANNELS 3 Zrotation Yrotation Xrotation
						JOINT LeftForeArm
						{
							OFFSET 5.40188 -0.00000 0.00000
							CHANNELS 3 Zrotation Yrotation Xrotation
							JOINT LeftHand
							{
								OFFSET 3.68559 -0.00000 0.00000
								CHANNELS 3 Zrotation Yrotation Xrotation
								JOINT LeftFingerBase
								{
									OFFSET 0 0 0
									CHANNELS 3 Zrotation Yrotation Xrotation
									JOINT LeftHandIndex1
									{
										OFFSET 0.61753 -0.00000 0.00000
										CHANNELS 3 Zrotation Yrotation Xrotation
										End Site
										{
											OFFSET 0.49787 -0.00000 0.00000
										}
									}
								}
								JOINT LThumb
								{
									OFFSET 0 0 0
									CHANNELS 3 Zrotation Yrotation Xrotation
									End Site
									{
										OFFSET 0.50547 -0.00000 0.50547
									}
								}
							}
						}
					}
				}
				JOINT RightShoulder
				{
					OFFSET 0 0 0
					CHANNELS 3 Zrotation Yrotation Xrotation
					JOINT RightArm
					{
						OFFSET -2.95373 1.39649 -0.27346
						CHANNELS 3 Zrotation Yrotation Xrotation
						JOINT RightForeArm
						{
							OFFSET -6.10670 -0.00000 -0.00000
							CHANNELS 3 Zrotation Yrotation Xrotation
							JOINT RightHand
							{
								OFFSET -3.63052 -0.00000 0.00000
								CHANNELS 3 Zrotation Yrotation Xrotation
								JOINT RightFingerBase
								{
									OFFSET 0 0 0
									CHANNELS 3 Zrotation Yrotation Xrotation
									JOINT RightHandIndex1
									{
										OFFSET -0.58385 -0.00000 0.00000
										CHANNELS 3 Zrotation Yrotation Xrotation
										End Site
										{
											OFFSET -0.47071 -0.00000 0.00000
										}
									}
								}
								JOINT RThumb
								{
									OFFSET 0 0 0
									CHANNELS 3 Zrotation Yrotation Xrotation
									End Site
									{
										OFFSET -0.47790 -0.00000 0.47790
									}
								}
							}
						}
					}
				}
			}
		}
	}
}
MOTION
Frames: 13
Frame Time: .0083333
5.5257 18.6403 -1.7063 350.4340 75.1688 -13.3947 0.0000 0.0000 0.0000 -12.5361 -0.3925 1.7734 2.2770 9.4206 27.1202 0.6613 12.5772 -24.5920 0.6370 -5.1065 -14.2127 0.0000 0.0000 0.0000 18.2211 14.2421 5.2684 -1.7928 -8.4205 23.9988 -0.6768 -8.9376 -21.2589 -0.3532 3.8183 -10.5660 0.2723 0.2114 4.5006 0.1226 0.3021 -0.9782 -0.0491 0.1459 -3.5306 -10.3197 -10.7143 -14.6612 15.5790 -14.8273 11.2212 4.9682 -6.2884 7.8726 -0.0000 0.0000 0.0000 -26.4171 -16.4802 -24.8043 26.9381 -38.1201 -9.4609 -0.0000 -0.0000 7.8024 35.8679 20.6926 14.3316 -7.1250 0.0000 -0.0000 7.9128 54.7964 1.9130 -0.0000 0.0000 0.0000 7.1175 27.4803 -56.9309 -12.7391 20.9038 -2.3594 0.0000 0.0000 14.7318 -38.5475 -11.4883 9.0174 7.1250 -0.0000 -0.0000 -10.5587 -44.2875 -0.1878
5.5206 18.6430 -1.6683 350.7850 74.9939 -12.9095 0.0000 0.0000 0.0000 -12.4215 -0.1667 1.6123 2.2652 9.3980 27.0484 0.6275 12.6269 -24.3575 0.6580 -5.1882 -14.4461 0.0000 0.0000 0.0000 18.2224 14.2569 5.0382 -1.7960 -8.4276 24.0204 -0.6859 -8.7952 -21.2205 -0.3496 3.7989 -10.5115 0.0869 0.0976 4.6230 0.1939 0.1423 -0.9541 0.1401 0.0711 -3.5758 -10.8148 -11.0876 -13.8674 15.8621 -15.2448 10.3719 5.1031 -6.5560 7.5807 -0.0000 0.0000 0.0000 -27.3664 -14.6084 -24.8160 26.7528 -37.9424 -9.3467 -0.0000 -0.0000 6.1678 36.1222 20.1513 14.1127 -7.1250 0.0000 -0.0000 8.2284 54.2243 1.8750 -0.0000 0.0000 0.0000 8.7508 27.0968 -58.7444 -12.6881 20.8285 -2.3412 0.0000 0.0000 12.9689 -39.4393 -12.3418 9.9716 7.1250 -0.0000 -0.0000 -11.4828 -45.4791 0.1376
5.5166 18.6488 -1.6296 351.3380 74.7956 -12.2799 0.0000 0.0000 0.0000 -12.3656 0.0625 1.5363 2.2526 9.3735 26.9710 0.6371 12.5054 -24.3143 0.6293 -5.0762 -14.1260 0.0000 0.0000 0.0000 18.1796 14.2068 4.8647 -1.7982 -8.4325 24.0357 -0.6866 -8.7048 -21.1485 -0.3688 3.9006 -10.7973 -0.2118 -0.0659 4.7508 0.3207 -0.0892 -0.9100 0.4562 -0.0364 -3.6012 -11.7828 -11.5891 -13.2169 16.4069 -15.8285 9.7711 5.3655 -6.8853 7.4877 0.0000 0.0000 0.0000 -28.4720 -12.4517 -24.4356 26.8742 -38.0590 -9.4215 -0.0000 -0.0000 4.3110 35.7736 21.3354 14.6893 -7.1250 0.0000 -0.0000 7.7604 55.5191 2.0124 0.0000 0.0000 0.0000 10.0975 26.8821 -60.1937 -12.5492 20.6232 -2.2921 0.0000 0.0000 11.2969 -40.1401 -13.2458 10.9358 7.1250 -0.0000 -0.0000 -12.2535 -46.7188 0.5275
5.5126 18.6552 -1.5941 351.7350 74.5892 -11.7399 0.0000 0.0000 0.0000 -12.3573 -0.0518 1.5302 2.2386 9.3463 26.8847 0.6816 12.4209 -24.6037 0.5263 -4.6492 -12.9108 0.0000 0.0000 0.0000 18.0808 13.9683 4.5106 -1.8014 -8.4395 24.0570 -0.6827 -8.4739 -20.9118 -0.4021 4.0711 -11.2769 -0.3388 -0.1369 4.7716 0.3025 -0.1924 -0.8543 0.5167 -0.0854 -3.5540 -12.5304 -11.9674 -12.1953 17.1204 -16.2914 8.7567 5.6868 -7.1694 7.1898 0.0000 0.0000 0.0000 -29.5596 -10.7963 -24.3031 27.0726 -38.2484 -9.5441 -0.0000 -0.0000 3.2286 35.2470 22.6121 15.2004 -7.1250 0.0000 -0.0000 7.0350 56.8634 2.0523 0.0000 0.0000 0.0000 11.7775 26.3669 -61.0970 -12.5345 20.6014 -2.2869 0.0000 0.0000 10.0728 -40.7924 -14.2741 12.0116 7.1250 -0.0000 -0.0000 -13.0151 -48.1171 1.0169
5.5045 18.6555 -1.5627 352.3260 74.4346 -11.0529 0.0000 0.0000 0.0000 -12.4350 -0.1593 1.5399 2.2239 9.3178 26.7944 0.7045 12.4556 -24.8295 0.4736 -4.4135 -12.2430 0.0000 0.0000 0.0000 17.8792 13.7141 4.1956 -1.8028 -8.4427 24.0669 -0.7079 -7.9949 -20.7509 -0.3572 3.8394 -10.6252 -0.4917 -0.1669 4.8779 0.2307 -0.2445 -0.7824 0.5328 -0.1091 -3.5387 -13.1347 -12.3767 -11.2987 17.7105 -16.8239 7.9163 5.9297 -7.4801 6.9649 0.0000 0.0000 0.0000 -30.7570 -9.2958 -24.0539 27.4527 -38.6075 -9.7803 -0.0000 -0.0000 2.3738 35.0661 22.5098 15.0416 -7.1250 0.0000 -0.0000 6.8369 56.7029 1.9676 0.0000 0.0000 0.0000 13.8414 25.7962 -61.5162 -12.8149 21.0154 -2.3865 0.0000 0.0000 8.9773 -41.4773 -14.8329 12.7517 7.1250 -0.0000 -0.0000 -13.7840 -48.9471 1.3655
5.4948 18.6513 -1.5327 352.5120 74.2410 -10.8036 0.0000 0.0000 0.0000 -12.3707 -0.1217 1.5354 2.2107 9.2919 26.7127 0.6894 12.5766 -24.8255 0.4706 -4.3997 -12.2040 0.0000 0.0000 0.0000 17.8673 13.6775 4.0305 -1.8043 -8.4460 24.0771 -0.7414 -7.5900 -20.7447 -0.3017 3.5319 -9.7632 -0.6280 -0.2137 4.9284 0.2619 -0.3139 -0.6275 0.6466 -0.1414 -3.4053 -12.9384 -12.7437 -10.8658 17.4396 -17.3099 7.4900 5.7568 -7.7624 6.7853 0.0000 -0.0000 0.0000 -32.1676 -7.7708 -23.7424 28.0291 -39.1431 -10.1421 -0.0000 -0.0000 1.5438 34.8945 22.4550 14.9173 -7.1250 0.0000 -0.0000 6.6452 56.5995 1.8954 0.0000 -0.0000 0.0000 15.9208 25.3558 -61.3622 -13.2699 21.6814 -2.5521 0.0000 0.0000 7.5374 -42.0928 -15.0613 13.2101 7.1250 -0.0000 -0.0000 -14.4564 -49.3576 1.5831
5.4874 18.6490 -1.5055 353.0050 74.0636 -10.2302 0.0000 0.0000 0.0000 -12.4380 -0.1739 1.5601 2.1931 9.2572 26.6032 0.6800 12.7327 -24.9058 0.4651 -4.3744 -12.1325 0.0000 0.0000 0.0000 17.7770 13.7220 3.8618 -1.8123 -8.4638 24.1318 -0.7639 -7.3238 -20.7503 -0.2859 3.4386 -9.5023 -0.7724 -0.2663 4.8728 0.2181 -0.3929 -0.4529 0.6875 -0.1799 -3.1919 -12.5630 -13.1004 -10.5253 17.1147 -17.7898 7.0751 5.5416 -8.0344 6.6002 -0.0000 -0.0000 0.0000 -33.5366 -6.3263 -23.2909 28.7148 -39.7660 -10.5778 -0.0000 -0.0000 0.8870 35.0777 22.9506 15.3137 -7.1250 0.0000 -0.0000 6.7980 57.2094 2.0396 -0.0000 -0.0000 0.0000 18.1153 24.9295 -60.6115 -13.8563 22.5289 -2.7728 0.0000 0.0000 6.1171 -42.6626 -15.5948 13.9146 7.1250 -0.0000 -0.0000 -15.1370 -50.1476 1.9601
5.4772 18.6464 -1.4792 353.7730 73.8464 -9.4075 0.0000 0.0000 0.0000 -12.5935 -0.1911 1.6471 2.1627 9.1971 26.4138 0.6437 13.0179 -24.8969 0.4849 -4.4652 -12.3893 0.0000 0.0000 0.0000 17.6000 13.8232 3.6518 -1.8345 -8.5124 24.2817 -0.7986 -6.9766 -20.8153 -0.2627 3.2972 -9.1074 -0.9079 -0.3082 5.0435 0.0875 -0.4622 -0.4166 0.6354 -0.2128 -3.2493 -12.5356 -13.4972 -10.0230 17.1293 -18.3466 6.7164 5.4851 -8.3391 6.4845 -0.0000 0.0000 0.0000 -34.8548 -4.7810 -22.4595 29.5347 -40.4912 -11.1062 -0.0000 -0.0000 0.2320 34.8576 22.3897 14.8585 -7.1250 0.0000 -0.0000 6.6105 56.5161 1.8721 -0.0000 0.0000 0.0000 20.6766 24.4805 -59.2443 -14.5918 23.5743 -3.0608 0.0000 0.0000 4.8996 -43.2555 -15.8524 14.4138 7.1250 -0.0000 -0.0000 -15.8165 -50.6012 2.2315
5.4639 18.6433 -1.4520 354.5330 73.5825 -8.6181 0.0000 0.0000 0.0000 -12.7576 -0.1973 1.8316 2.1115 9.0946 26.0916 0.6090 13.3504 -24.9564 0.4785 -4.4360 -12.3065 0.0000 0.0000 0.0000 17.4101 13.9118 3.3818 -1.8711 -8.5922 24.5277 -0.8477 -6.4730 -20.9086 -0.2367 3.1312 -8.6441 -1.0579 -0.2926 5.2942 -0.0876 -0.4592 -0.4287 0.5408 -0.2091 -3.4032 -12.3283 -13.8602 -9.4830 17.0170 -18.8834 6.4873 5.3700 -8.6353 6.3680 0.0000 -0.0000 0.0000 -36.1249 -3.3158 -21.2900 30.4586 -41.2832 -11.7110 -0.0000 0.0000 -0.4660 35.0091 22.3654 14.9239 -7.1250 0.0000 -0.0000 6.7876 56.5242 1.9239 0.0000 -0.0000 0.0000 23.4664 23.8608 -57.4301 -15.3950 24.6935 -3.3893 0.0000 0.0000 3.8562 -43.5970 -15.6407 14.3977 7.1250 -0.0000 -0.0000 -16.1503 -50.4091 2.2030
5.4516 18.6420 -1.4273 356.0340 73.3630 -7.0451 0.0000 0.0000 0.0000 -13.1642 -0.1688 1.9736 2.0424 8.9539 25.6512 0.5605 13.6751 -24.8988 0.4666 -4.3814 -12.1522 0.0000 0.0000 0.0000 16.9218 13.8987 2.9900 -1.9062 -8.6678 24.7617 -0.8975 -5.9268 -20.9906 -0.2129 2.9704 -8.1964 -1.4840 -0.2990 5.3224 -0.2656 -0.4998 -0.3620 0.5997 -0.2234 -3.3477 -12.0066 -14.1377 -9.1596 16.7298 -19.2798 6.3344 5.1963 -8.8581 6.2584 -0.0000 -0.0000 0.0000 -37.5100 -1.9918 -20.2313 31.3524 -42.0247 -12.3051 -0.0000 0.0000 -0.9627 35.4584 22.0997 14.9996 -7.1250 0.0000 -0.0000 7.3331 56.3260 2.0444 -0.0000 -0.0000 0.0000 26.1356 23.2949 -55.2371 -16.2475 25.8550 -3.7532 0.0000 0.0000 2.9709 -44.0259 -15.3620 14.3625 7.1250 -0.0000 -0.0000 -16.5630 -50.1498 2.1543
5.4390 18.6419 -1.4095 358.5220 73.1525 -4.5176 0.0000 0.0000 0.0000 -13.9033 -0.0149 2.0121 1.9844 8.8334 25.2757 0.5072 13.9399 -24.7401 0.5018 -4.5413 -12.6047 0.0000 0.0000 0.0000 16.2390 14.4062 2.8301 -1.9438 -8.7480 25.0103 -0.9263 -5.9135 -21.2479 -0.1772 2.7119 -7.4777 -2.1482 -0.2992 5.3150 -0.4874 -0.5463 -0.2648 0.7470 -0.2376 -3.2386 -11.8581 -14.3888 -8.9365 16.5467 -19.6269 6.2189 5.0815 -9.0489 6.1976 0.0000 -0.0000 0.0000 -39.0543 -0.8600 -19.2690 32.2153 -42.7181 -12.8866 -0.0000 0.0000 -1.2594 35.9932 21.7390 15.0577 -7.1250 0.0000 -0.0000 7.9800 56.0371 2.1704 0.0000 -0.0000 0.0000 28.7550 22.6986 -52.6253 -17.1854 27.1016 -4.1715 0.0000 0.0000 2.3843 -44.6776 -14.9172 14.2809 7.1250 -0.0000 -0.0000 -17.1769 -49.7239 2.0545
5.4250 18.6459 -1.3929 360.1650 72.9421 -2.8827 0.0000 0.0000 0.0000 -14.4258 0.0497 2.1355 1.9351 8.7295 24.9528 0.4486 14.3071 -24.6552 0.5637 -4.8088 -13.3639 0.0000 0.0000 0.0000 16.1757 15.8476 3.2785 -1.9734 -8.8104 25.2040 -0.9392 -6.8685 -22.0305 -0.1627 2.5986 -7.1632 -2.6215 -0.3826 5.4302 -0.5384 -0.6907 -0.2126 0.9722 -0.3017 -3.2407 -12.0226 -14.5384 -8.5309 16.4198 -19.8172 6.0774 5.0651 -9.1808 6.1132 -0.0000 -0.0000 0.0000 -40.8849 0.4911 -18.2287 33.2258 -43.5028 -13.5772 -0.0000 0.0000 -1.6747 36.5882 21.6384 15.3090 -7.1250 0.0000 -0.0000 8.6724 56.0619 2.3658 -0.0000 -0.0000 0.0000 31.2659 22.1459 -49.4011 -18.1435 28.3405 -4.6172 0.0000 0.0000 2.1046 -45.0376 -14.5164 14.0894 7.1250 -0.0000 -0.0000 -17.4774 -49.2859 1.8995
5.4068 18.6296 -1.3754 360.1590 72.6633 -2.8970 0.0000 0.0000 0.0000 -14.3891 0.0827 2.2851 1.9011 8.6569 24.7279 0.4203 14.5536 -24.6962 0.5846 -4.8958 -13.6117 0.0000 0.0000 0.0000 16.7900 17.4741 3.9540 -1.9940 -8.8535 25.3381 -0.9291 -8.1591 -22.9096 -0.1682 2.6421 -7.2839 -2.7452 -0.5898 5.6381 -0.2909 -0.9743 -0.2018 1.3223 -0.4379 -3.3299 -12.4952 -14.5357 -8.1341 16.2373 -19.7770 6.0764 5.1068 -9.2079 6.0658 0.0000 0.0000 0.0000 -43.0908 2.1249 -17.3693 34.2959 -44.3028 -14.3193 -0.0000 0.0000 -2.0466 36.4876 21.9191 15.4349 -7.1250 0.0000 -0.0000 8.5380 56.3633 2.3913 0.0000 0.0000 0.0000 33.5016 21.7902 -45.5879 -19.0642 29.4984 -5.0624 0.0000 0.0000 2.2441 -45.3433 -14.4515 14.1748 7.1250 -0.0000 -0.0000 -17.7895 -49.2686 1.9277
